<svg xmlns="http://www.w3.org/2000/svg" version="1.1" xmlns:xlink="http://www.w3.org/1999/xlink" xmlns:svgjs="http://svgjs.dev/svgjs" width="100%" height="100%" viewBox="0 0 1000 600"><rect width="1000" height="600" x="0" y="0" fill="#4f6d7a"/><g><rect width="333.3333333333333" height="333.3333333333333" rx="13.333333333333334" ry="13.333333333333334" y="340.6060329843295" fill="#eaeaea" transform="matrix(0.3926079026266019,0,0,0.3926079026266019,0,100.8407295094058)" x="318.3836669921875"/><path d="M443.1050444676455 582.2726725129826L442.64911748998327 582.2726725129826L373.8041438629871 438.6556745493813L401.843652989214 438.6556745493813L429.42723513777867 497.9261816454707Q433.3026144479076 506.36083073222187 436.858844873673 514.3395528413109Q440.36948260167213 522.3182749503999 443.7889349341388 534.4003398584489L443.7889349341388 534.4003398584489Q447.43635075543665 522.5462384392309 451.1749519722669 514.3395528413109Q454.9591458868634 506.13286724339076 458.37859821933006 497.9261816454707L458.37859821933006 497.9261816454707L485.73421687906364 432.2726968621101L486.19014385672585 432.2726968621101L513.3177990276283 497.9261816454707Q516.7372513600951 506.36083073222187 520.3846671813928 514.3395528413109Q524.0320830026907 522.3182749503999 527.4515353351574 534.4003398584489L527.4515353351574 534.4003398584489Q530.870987667624 522.3182749503999 534.5184034889219 514.2027747480122Q538.1658193102196 506.13286724339076 542.0411986203486 497.9261816454707L542.0411986203486 497.9261816454707L570.0807077465755 438.6556745493813L596.2965089621536 438.6556745493813L527.4515353351574 582.2726725129826L526.9956083574951 582.2726725129826L499.41202620893046 521.1784575062443Q495.7646103876326 512.9717719083242 492.25397265963346 504.85627170593654Q488.6977422338681 496.78636420131517 485.0503264125703 485.3881897597595L485.0503264125703 485.3881897597595Q481.6308740801036 496.78636420131517 477.9834582588058 504.85627170593654Q474.336042437508 512.9717719083242 470.46066312737906 521.1784575062443L470.46066312737906 521.1784575062443L443.1050444676455 582.2726725129826Z " fill="#4f6d7a" transform="matrix(0.3926079026266019,0,0,0.3926079026266019,0,100.8407295094058)"/><path d="M787.7775942404484 582.2726890645904L787.474563937418 582.2726890645904L735.0503215131757 441.36359815549946L752.6260790889332 441.36359815549946L783.5351699980241 523.1817799736812Q785.2018366646907 527.4242042161054 786.2624427252969 531.2726890645904Q787.323048785903 535.1514769433782 788.5351699980241 540.4545072464085L788.5351699980241 540.4545072464085Q789.7472912101454 535.1514769433782 790.8988063616605 531.2726890645904Q792.0200184828726 527.4242042161054 793.5351699980241 523.1817799736812L793.5351699980241 523.1817799736812L824.5957760586302 436.8181436100449L824.8988063616605 436.8181436100449L855.8078972707514 523.1817799736812Q857.1715336343877 526.96965876156 858.4745639374181 530.8181436100449Q859.7472912101454 534.6969314888328 860.8078972707514 540.4545072464085L860.8078972707514 540.4545072464085Q862.0200184828726 534.6969314888328 863.2321396949939 530.8181436100449Q864.444260907115 526.96965876156 865.9594124222665 523.1817799736812L865.9594124222665 523.1817799736812L896.8685033313575 441.36359815549946L913.2321396949939 441.36359815549946L860.9594124222666 582.2726890645904L860.6563821192362 582.2726890645904L829.2927457555999 493.78784057974184Q827.9291093919635 489.8484466403479 826.7169881798422 486.1211739130752Q825.5048669677211 482.42420421610547 824.2927457555999 476.6666284585297L824.2927457555999 476.6666284585297Q823.0806245434787 482.42420421610547 821.8685033313575 486.1211739130752Q820.6563821192362 489.8484466403479 819.2927457555999 493.78784057974184L819.2927457555999 493.78784057974184L787.7775942404484 582.2726890645904ZM959.2927457555999 579.5454163373176L959.2927457555999 579.5454163373176Q948.5351699980241 579.5454163373176 939.444260907115 575.8181436100449Q930.3533518162059 572.1211739130752 923.6866851495392 565.6060223979237Q917.0200184828726 559.0908708827722 913.2927457555999 550.3029920948934Q909.5957760586302 541.5151133070146 909.5957760586302 531.3635981554994L909.5957760586302 531.3635981554994Q909.5957760586302 521.6666284585297 913.1715336343877 513.2423860342874Q916.7169881798422 504.8484466403479 923.0806245434786 498.4848102767116Q929.444260907115 492.1211739130752 937.8685033313575 488.5454163373176Q946.2624427252969 484.9999617918631 955.8078972707514 484.9999617918631L955.8078972707514 484.9999617918631Q968.3836548465089 484.9999617918631 978.8382003010544 490.96965876156Q989.2927457555999 496.96965876156 995.5048669677211 507.1211739130752Q1001.7169881798424 517.2726890645904 1001.7169881798424 530.1514769433782L1001.7169881798424 530.1514769433782L1001.7169881798424 536.8181436100449L942.3230487859029 536.8181436100449Q938.383654846509 536.8181436100449 934.2927457555999 536.5151133070146Q930.2018366646909 536.2120830039843 926.2624427252969 535.6060223979237L926.2624427252969 535.6060223979237Q927.3230487859029 543.6363254282267 931.9594124222666 550.1514769433782Q936.5654730283271 556.6666284585297 943.6866851495392 560.3635981554994Q950.8078972707514 564.0908708827722 959.444260907115 564.0908708827722L959.444260907115 564.0908708827722Q968.0806245434786 564.0908708827722 975.5048669677211 560.1514769433782Q982.9291093919635 556.2120830039843 987.4745639374181 549.6969314888328L987.4745639374181 549.6969314888328L992.0200184828726 568.3332951251964Q985.5048669677211 573.6363254282267 977.0806245434786 576.5757193676206Q968.6866851495392 579.5454163373176 959.2927457555999 579.5454163373176ZM925.8078972707514 524.5454163373176L925.8078972707514 524.5454163373176Q929.8988063616605 523.7878405797419 934.0806245434786 523.4848102767116Q938.2321396949939 523.1817799736812 942.3230487859029 523.1817799736812L942.3230487859029 523.1817799736812L972.4745639374181 523.1817799736812Q975.8078972707514 523.1817799736812 979.0806245434786 523.3939011858024Q982.3230487859029 523.6363254282267 985.6563821192362 523.939355731257L985.6563821192362 523.939355731257Q984.2927457555999 516.8181436100449 979.8988063616605 511.36359815549946Q975.5048669677211 505.90905270095396 969.2927457555999 502.7272345191358Q963.0806245434786 499.5454163373176 955.8078972707514 499.5454163373176L955.8078972707514 499.5454163373176Q948.383654846509 499.5454163373176 942.0806245434786 502.939355731257Q935.8078972707514 506.36359815549946 931.5654730283271 511.96965876156Q927.3230487859029 517.5757193676206 925.8078972707514 524.5454163373176ZM1039.8988063616605 577.7272345191359L1023.5351699980241 577.7272345191359L1023.5351699980241 432.27268906459034L1039.8988063616605 432.27268906459034L1039.8988063616605 577.7272345191359ZM1085.3533518162058 577.7272345191359L1068.9897154525697 577.7272345191359L1068.9897154525697 432.27268906459034L1085.3533518162058 432.27268906459034L1085.3533518162058 577.7272345191359ZM1130.8078972707513 577.7272345191359L1114.444260907115 577.7272345191359L1114.444260907115 486.8181436100449L1129.5957760586302 486.8181436100449L1129.5957760586302 501.5151133070146Q1134.5957760586302 493.4848102767115 1142.5351699980242 489.24238603428734Q1150.5048669677212 484.9999617918631 1159.7472912101452 484.9999617918631L1159.7472912101452 484.9999617918631Q1169.4442609071148 484.9999617918631 1177.7169881798422 489.75753754943884Q1185.9594124222665 494.5454163373176 1191.1109275737817 503.5454163373176Q1196.2624427252968 512.5757193676206 1196.2624427252968 525.4545072464085L1196.2624427252968 525.4545072464085L1196.2624427252968 577.7272345191359L1179.8988063616603 577.7272345191359L1179.8988063616603 527.7272345191358Q1179.8988063616603 516.96965876156 1173.4745639374182 508.6969314888328Q1167.0200184828727 500.4545072464085 1155.3533518162058 500.4545072464085L1155.3533518162058 500.4545072464085Q1148.9897154525695 500.4545072464085 1143.3836548465088 503.5454163373176Q1137.7775942404483 506.6666284585297 1134.2927457555998 512.5757193676206Q1130.8078972707513 518.4848102767116 1130.8078972707513 527.2726890645904L1130.8078972707513 527.2726890645904L1130.8078972707513 577.7272345191359ZM1266.8685033313573 579.5454163373176L1266.8685033313573 579.5454163373176Q1256.1109275737817 579.5454163373176 1247.0200184828727 575.8181436100449Q1237.9291093919635 572.1211739130752 1231.2624427252968 565.6060223979237Q1224.5957760586302 559.0908708827722 1220.8988063616603 550.3029920948934Q1217.1715336343877 541.5151133070146 1217.1715336343877 531.3635981554994L1217.1715336343877 531.3635981554994Q1217.1715336343877 521.6666284585297 1220.7472912101452 513.2423860342874Q1224.2927457555998 504.8484466403479 1230.6563821192362 498.4848102767116Q1237.0200184828727 492.1211739130752 1245.444260907115 488.5454163373176Q1253.8382003010543 484.9999617918631 1263.3836548465088 484.9999617918631L1263.3836548465088 484.9999617918631Q1275.9594124222665 484.9999617918631 1286.413957876812 490.96965876156Q1296.8685033313575 496.96965876156 1303.0806245434787 507.1211739130752Q1309.2927457555998 517.2726890645904 1309.2927457555998 530.1514769433782L1309.2927457555998 530.1514769433782L1309.2927457555998 536.8181436100449L1249.8988063616603 536.8181436100449Q1245.9594124222663 536.8181436100449 1241.8685033313573 536.5151133070146Q1237.7775942404483 536.2120830039843 1233.8382003010543 535.6060223979237L1233.8382003010543 535.6060223979237Q1234.8988063616605 543.6363254282267 1239.5048669677212 550.1514769433782Q1244.1412306040847 556.6666284585297 1251.2624427252968 560.3635981554994Q1258.383654846509 564.0908708827722 1267.0200184828725 564.0908708827722L1267.0200184828725 564.0908708827722Q1275.6563821192362 564.0908708827722 1283.0806245434785 560.1514769433782Q1290.504866967721 556.2120830039843 1295.0503215131757 549.6969314888328L1295.0503215131757 549.6969314888328L1299.5957760586302 568.3332951251964Q1293.0806245434787 573.6363254282267 1284.6563821192362 576.5757193676206Q1276.2624427252968 579.5454163373176 1266.8685033313573 579.5454163373176ZM1233.383654846509 524.5454163373176L1233.383654846509 524.5454163373176Q1237.4745639374182 523.7878405797419 1241.6563821192362 523.4848102767116Q1245.8078972707513 523.1817799736812 1249.8988063616603 523.1817799736812L1249.8988063616603 523.1817799736812L1280.0503215131757 523.1817799736812Q1283.383654846509 523.1817799736812 1286.6563821192362 523.3939011858024Q1289.8988063616603 523.6363254282267 1293.2321396949937 523.939355731257L1293.2321396949937 523.939355731257Q1291.8685033313573 516.8181436100449 1287.474563937418 511.36359815549946Q1283.0806245434785 505.90905270095396 1276.8685033313575 502.7272345191358Q1270.6563821192362 499.5454163373176 1263.3836548465088 499.5454163373176L1263.3836548465088 499.5454163373176Q1255.9594124222665 499.5454163373176 1249.6866851495392 502.939355731257Q1243.3836548465088 506.36359815549946 1239.1412306040847 511.96965876156Q1234.8988063616605 517.5757193676206 1233.383654846509 524.5454163373176ZM1354.5957760586302 579.5454163373176L1354.5957760586302 579.5454163373176Q1347.6260790889332 579.5454163373176 1339.6866851495392 576.8787496706509Q1331.7169881798422 574.2423860342874 1325.9594124222665 568.0302648221661L1325.9594124222665 568.0302648221661L1330.504866967721 550.1514769433782Q1334.7472912101452 557.2726890645904 1341.4139578768118 561.4242042161054Q1348.0806245434787 565.6060223979237 1355.6563821192362 565.6060223979237L1355.6563821192362 565.6060223979237Q1362.9291093919637 565.6060223979237 1366.5654730283272 562.0302648221661Q1370.2018366646907 558.4848102767116 1370.2018366646907 553.3332951251964L1370.2018366646907 553.3332951251964Q1370.2018366646907 547.4242042161054 1366.3533518162058 544.6969314888328Q1362.4745639374182 541.96965876156 1359.4442609071152 540.9090527009539L1359.4442609071152 540.9090527009539L1347.1715336343877 536.2120830039843Q1343.8382003010543 534.8484466403479 1339.1412306040847 532.1817799736812Q1334.444260907115 529.5454163373176 1330.9594124222665 524.5454163373176Q1327.474563937418 519.5454163373176 1327.474563937418 511.5151133070146L1327.474563937418 511.5151133070146Q1327.474563937418 504.24238603428734 1330.9594124222665 498.1817799736812Q1334.444260907115 492.1211739130752 1340.8078972707513 488.5454163373176Q1347.1715336343877 484.9999617918631 1355.8078972707513 484.9999617918631L1355.8078972707513 484.9999617918631Q1362.6260790889332 484.9999617918631 1370.0503215131757 487.42420421610547Q1377.4745639374182 489.8484466403479 1382.6260790889332 495.60602239792365L1382.6260790889332 495.60602239792365L1378.0806245434787 513.4848102767116Q1375.6563821192362 509.09087088277215 1372.0200184828727 505.8181436100449Q1368.3836548465088 502.57571936762065 1364.1412306040847 500.75753754943884Q1359.8988063616607 498.939355731257 1355.3533518162058 498.939355731257L1355.3533518162058 498.939355731257Q1349.1412306040847 498.939355731257 1345.5654730283272 502.42420421610547Q1342.0200184828725 505.90905270095396 1342.0200184828725 510.4545072464085L1342.0200184828725 510.4545072464085Q1342.0200184828725 514.0908708827722 1344.4442609071152 516.96965876156Q1346.8685033313577 519.8484466403479 1351.7169881798422 521.6666284585297L1351.7169881798422 521.6666284585297L1363.9897154525697 526.3635981554994Q1367.3230487859028 527.5757193676206 1372.2624427252968 530.3029920948934Q1377.1715336343877 533.0302648221661 1380.9594124222667 538.1817799736812Q1384.7472912101452 543.3332951251964 1384.7472912101452 552.1211739130752L1384.7472912101452 552.1211739130752Q1384.7472912101452 560.3029920948934 1380.8078972707513 566.4242042161054Q1376.8685033313577 572.5757193676206 1370.1412306040847 576.0605678524691Q1363.3836548465088 579.5454163373176 1354.5957760586302 579.5454163373176ZM1431.8685033313577 579.5454163373176L1431.8685033313577 579.5454163373176Q1424.8988063616603 579.5454163373176 1416.9594124222667 576.8787496706509Q1408.9897154525697 574.2423860342874 1403.2321396949937 568.0302648221661L1403.2321396949937 568.0302648221661L1407.7775942404483 550.1514769433782Q1412.0200184828727 557.2726890645904 1418.6866851495392 561.4242042161054Q1425.3533518162058 565.6060223979237 1432.9291093919633 565.6060223979237L1432.9291093919633 565.6060223979237Q1440.2018366646907 565.6060223979237 1443.8382003010543 562.0302648221661Q1447.4745639374182 558.4848102767116 1447.4745639374182 553.3332951251964L1447.4745639374182 553.3332951251964Q1447.4745639374182 547.4242042161054 1443.6260790889332 544.6969314888328Q1439.7472912101452 541.96965876156 1436.7169881798422 540.9090527009539L1436.7169881798422 540.9090527009539L1424.4442609071152 536.2120830039843Q1421.1109275737817 534.8484466403479 1416.4139578768118 532.1817799736812Q1411.7169881798422 529.5454163373176 1408.2321396949937 524.5454163373176Q1404.7472912101452 519.5454163373176 1404.7472912101452 511.5151133070146L1404.7472912101452 511.5151133070146Q1404.7472912101452 504.24238603428734 1408.2321396949937 498.1817799736812Q1411.7169881798422 492.1211739130752 1418.0806245434787 488.5454163373176Q1424.4442609071152 484.9999617918631 1433.0806245434787 484.9999617918631L1433.0806245434787 484.9999617918631Q1439.8988063616603 484.9999617918631 1447.3230487859028 487.42420421610547Q1454.7472912101452 489.8484466403479 1459.8988063616607 495.60602239792365L1459.8988063616607 495.60602239792365L1455.3533518162058 513.4848102767116Q1452.9291093919633 509.09087088277215 1449.2927457555998 505.8181436100449Q1445.6563821192362 502.57571936762065 1441.4139578768118 500.75753754943884Q1437.1715336343877 498.939355731257 1432.6260790889332 498.939355731257L1432.6260790889332 498.939355731257Q1426.4139578768118 498.939355731257 1422.8382003010543 502.42420421610547Q1419.2927457555998 505.90905270095396 1419.2927457555998 510.4545072464085L1419.2927457555998 510.4545072464085Q1419.2927457555998 514.0908708827722 1421.7169881798422 516.96965876156Q1424.1412306040847 519.8484466403479 1428.9897154525697 521.6666284585297L1428.9897154525697 521.6666284585297L1441.2624427252968 526.3635981554994Q1444.5957760586302 527.5757193676206 1449.5351699980242 530.3029920948934Q1454.4442609071152 533.0302648221661 1458.2321396949937 538.1817799736812Q1462.0200184828727 543.3332951251964 1462.0200184828727 552.1211739130752L1462.0200184828727 552.1211739130752Q1462.0200184828727 560.3029920948934 1458.0806245434787 566.4242042161054Q1454.1412306040847 572.5757193676206 1447.4139578768118 576.0605678524691Q1440.6563821192362 579.5454163373176 1431.8685033313577 579.5454163373176ZM1553.3836548465088 577.7272345191359L1536.1109275737817 577.7272345191359L1536.1109275737817 441.36359815549946L1570.3533518162058 441.36359815549946Q1583.2321396949937 441.36359815549946 1592.4745639374182 446.5151133070146Q1601.7169881798422 451.6666284585297 1606.7775942404483 460.0605678524691Q1611.8685033313573 468.4848102767116 1611.8685033313573 478.4848102767115L1611.8685033313573 478.4848102767115Q1611.8685033313573 485.90905270095396 1608.9897154525697 492.4848102767115Q1606.1109275737817 499.09087088277215 1600.8078972707513 503.9999617918631Q1595.5048669677212 508.939355731257 1588.0806245434787 511.8181436100449L1588.0806245434787 511.8181436100449L1633.8382003010543 577.7272345191359L1613.6866851495392 577.7272345191359L1570.3533518162058 514.9999617918631L1553.3836548465088 514.9999617918631L1553.3836548465088 577.7272345191359ZM1553.3836548465088 456.8181436100449L1553.3836548465088 500.4545072464085L1570.3533518162058 500.4545072464085Q1579.1412306040847 500.4545072464085 1584.6866851495392 497.1817799736813Q1590.2018366646907 493.939355731257 1592.8685033313573 488.8484466403479Q1595.5048669677212 483.78784057974184 1595.5048669677212 478.4848102767115L1595.5048669677212 478.4848102767115Q1595.5048669677212 472.1211739130752 1592.3836548465088 467.1817799736813Q1589.2927457555998 462.27268906459034 1583.6260790889332 459.5454163373176Q1577.9291093919633 456.8181436100449 1570.3533518162058 456.8181436100449L1570.3533518162058 456.8181436100449L1553.3836548465088 456.8181436100449ZM1686.5654730283272 579.5454163373176L1686.5654730283272 579.5454163373176Q1675.8078972707513 579.5454163373176 1666.7169881798422 575.8181436100449Q1657.6260790889332 572.1211739130752 1650.9594124222667 565.6060223979237Q1644.2927457555998 559.0908708827722 1640.5957760586302 550.3029920948934Q1636.8685033313573 541.5151133070146 1636.8685033313573 531.3635981554994L1636.8685033313573 531.3635981554994Q1636.8685033313573 521.6666284585297 1640.4442609071152 513.2423860342874Q1643.9897154525697 504.8484466403479 1650.3533518162058 498.4848102767116Q1656.7169881798422 492.1211739130752 1665.1109275737817 488.5454163373176Q1673.5351699980242 484.9999617918631 1683.0806245434787 484.9999617918631L1683.0806245434787 484.9999617918631Q1695.6563821192362 484.9999617918631 1706.1109275737817 490.96965876156Q1716.5654730283272 496.96965876156 1722.7775942404483 507.1211739130752Q1728.9897154525697 517.2726890645904 1728.9897154525697 530.1514769433782L1728.9897154525697 530.1514769433782L1728.9897154525697 536.8181436100449L1669.5957760586302 536.8181436100449Q1665.6563821192362 536.8181436100449 1661.5654730283272 536.5151133070146Q1657.4745639374182 536.2120830039843 1653.5351699980242 535.6060223979237L1653.5351699980242 535.6060223979237Q1654.5957760586302 543.6363254282267 1659.2018366646907 550.1514769433782Q1663.8382003010543 556.6666284585297 1670.9594124222663 560.3635981554994Q1678.0806245434787 564.0908708827722 1686.7169881798422 564.0908708827722L1686.7169881798422 564.0908708827722Q1695.3533518162058 564.0908708827722 1702.7775942404483 560.1514769433782Q1710.2018366646907 556.2120830039843 1714.7472912101452 549.6969314888328L1714.7472912101452 549.6969314888328L1719.2927457555998 568.3332951251964Q1712.7775942404483 573.6363254282267 1704.3836548465088 576.5757193676206Q1695.9594124222663 579.5454163373176 1686.5654730283272 579.5454163373176ZM1653.0806245434787 524.5454163373176L1653.0806245434787 524.5454163373176Q1657.1715336343877 523.7878405797419 1661.3230487859028 523.4848102767116Q1665.5048669677208 523.1817799736812 1669.5957760586302 523.1817799736812L1669.5957760586302 523.1817799736812L1699.7472912101452 523.1817799736812Q1703.0806245434787 523.1817799736812 1706.3533518162058 523.3939011858024Q1709.5957760586302 523.6363254282267 1712.9291093919633 523.939355731257L1712.9291093919633 523.939355731257Q1711.5654730283272 516.8181436100449 1707.1715336343877 511.36359815549946Q1702.7775942404483 505.90905270095396 1696.5654730283272 502.7272345191358Q1690.3533518162058 499.5454163373176 1683.0806245434787 499.5454163373176L1683.0806245434787 499.5454163373176Q1675.6563821192362 499.5454163373176 1669.3836548465088 502.939355731257Q1663.0806245434787 506.36359815549946 1658.8382003010543 511.96965876156Q1654.5957760586302 517.5757193676206 1653.0806245434787 524.5454163373176ZM1777.7775942404483 577.7272345191359L1761.4139578768122 577.7272345191359L1761.4139578768122 500.4545072464085L1740.8078972707513 500.4545072464085L1740.8078972707513 486.8181436100449L1761.8685033313573 486.8181436100449L1761.8685033313573 456.5151133070146L1777.3230487859028 456.5151133070146L1777.3230487859028 486.8181436100449L1799.8988063616603 486.8181436100449L1799.8988063616603 500.4545072464085L1777.7775942404483 500.4545072464085L1777.7775942404483 577.7272345191359ZM1835.3533518162058 577.7272345191359L1818.9897154525697 577.7272345191359L1818.9897154525697 486.8181436100449L1834.1412306040847 486.8181436100449L1834.1412306040847 503.4848102767116Q1838.9897154525693 495.4545072464085 1847.0200184828727 490.6666284585297Q1855.0503215131753 485.90905270095396 1866.1109275737817 485.90905270095396L1866.1109275737817 485.90905270095396L1870.2018366646907 502.27268906459034Q1868.6866851495392 501.8181436100449 1866.9594124222667 501.57571936762065Q1865.2018366646907 501.36359815549946 1863.5351699980242 501.36359815549946L1863.5351699980242 501.36359815549946Q1855.0503215131753 501.36359815549946 1848.6866851495392 504.9999617918631Q1842.3230487859028 508.6363254282267 1838.8382003010543 515.6060223979237Q1835.3533518162058 522.5757193676206 1835.3533518162058 532.5757193676206L1835.3533518162058 532.5757193676206L1835.3533518162058 577.7272345191359ZM1927.4745639374182 579.5454163373176L1927.4745639374182 579.5454163373176Q1916.7169881798422 579.5454163373176 1907.6260790889332 575.8181436100449Q1898.5351699980242 572.1211739130752 1891.8685033313573 565.6060223979237Q1885.2018366646907 559.0908708827722 1881.5048669677212 550.3029920948934Q1877.7775942404483 541.5151133070146 1877.7775942404483 531.3635981554994L1877.7775942404483 531.3635981554994Q1877.7775942404483 521.6666284585297 1881.3533518162058 513.2423860342874Q1884.8988063616603 504.8484466403479 1891.2624427252968 498.4848102767116Q1897.6260790889332 492.1211739130752 1906.0200184828723 488.5454163373176Q1914.4442609071152 484.9999617918631 1923.9897154525697 484.9999617918631L1923.9897154525697 484.9999617918631Q1936.5654730283272 484.9999617918631 1947.0200184828727 490.96965876156Q1957.4745639374182 496.96965876156 1963.6866851495392 507.1211739130752Q1969.8988063616603 517.2726890645904 1969.8988063616603 530.1514769433782L1969.8988063616603 530.1514769433782L1969.8988063616603 536.8181436100449L1910.5048669677212 536.8181436100449Q1906.5654730283268 536.8181436100449 1902.4745639374182 536.5151133070146Q1898.3836548465088 536.2120830039843 1894.4442609071152 535.6060223979237L1894.4442609071152 535.6060223979237Q1895.5048669677212 543.6363254282267 1900.1109275737817 550.1514769433782Q1904.7472912101452 556.6666284585297 1911.8685033313573 560.3635981554994Q1918.9897154525697 564.0908708827722 1927.6260790889332 564.0908708827722L1927.6260790889332 564.0908708827722Q1936.2624427252968 564.0908708827722 1943.6866851495392 560.1514769433782Q1951.1109275737817 556.2120830039843 1955.6563821192362 549.6969314888328L1955.6563821192362 549.6969314888328L1960.2018366646907 568.3332951251964Q1953.6866851495392 573.6363254282267 1945.2927457555998 576.5757193676206Q1936.8685033313573 579.5454163373176 1927.4745639374182 579.5454163373176ZM1893.9897154525697 524.5454163373176L1893.9897154525697 524.5454163373176Q1898.0806245434787 523.7878405797419 1902.2321396949937 523.4848102767116Q1906.4139578768122 523.1817799736812 1910.5048669677212 523.1817799736812L1910.5048669677212 523.1817799736812L1940.6563821192362 523.1817799736812Q1943.9897154525697 523.1817799736812 1947.2624427252968 523.3939011858024Q1950.5048669677208 523.6363254282267 1953.8382003010543 523.939355731257L1953.8382003010543 523.939355731257Q1952.4745639374182 516.8181436100449 1948.0806245434787 511.36359815549946Q1943.6866851495392 505.90905270095396 1937.4745639374178 502.7272345191358Q1931.2624427252968 499.5454163373176 1923.9897154525697 499.5454163373176L1923.9897154525697 499.5454163373176Q1916.5654730283272 499.5454163373176 1910.2927457555998 502.939355731257Q1903.9897154525697 506.36359815549946 1899.7472912101452 511.96965876156Q1895.5048669677212 517.5757193676206 1893.9897154525697 524.5454163373176ZM2030.6563821192362 578.9393557312569L2030.6563821192362 578.9393557312569Q2021.2624427252968 578.9393557312569 2013.0806245434787 575.3029920948934Q2004.8988063616603 571.6666284585297 1998.5957760586302 565.2120830039843Q1992.3230487859028 558.7878405797419 1988.8382003010543 550.3635981554994Q1985.3533518162058 541.96965876156 1985.3533518162058 532.2726890645904L1985.3533518162058 532.2726890645904Q1985.3533518162058 522.5757193676206 1988.8382003010543 514.1514769433782Q1992.3230487859028 505.75753754943884 1998.5957760586302 499.30299209489334Q2004.8988063616603 492.87874967065096 2013.0806245434787 489.24238603428734Q2021.2624427252968 485.60602239792365 2030.6563821192362 485.60602239792365L2030.6563821192362 485.60602239792365Q2040.0503215131753 485.60602239792365 2048.3230487859028 489.09087088277215Q2056.565473028327 492.57571936762065 2062.6260790889332 498.78784057974184L2062.6260790889332 498.78784057974184L2062.6260790889332 486.8181436100449L2077.7775942404483 486.8181436100449L2077.7775942404483 577.7272345191359L2062.6260790889332 577.7272345191359L2062.6260790889332 565.7575375494389Q2056.565473028327 571.8181436100449 2048.3230487859028 575.3635981554994Q2040.0503215131753 578.9393557312569 2030.6563821192362 578.9393557312569ZM2032.7775942404483 564.0908708827722L2032.7775942404483 564.0908708827722Q2041.4139578768122 564.0908708827722 2048.4442609071148 559.7575375494389Q2055.5048669677212 555.4545072464085 2059.6866851495392 548.2423860342873Q2063.8382003010543 541.0605678524691 2063.8382003010543 532.2726890645904L2063.8382003010543 532.2726890645904Q2063.8382003010543 523.4848102767116 2059.6866851495392 516.2726890645904Q2055.5048669677212 509.09087088277215 2048.4442609071148 504.75753754943884Q2041.4139578768122 500.4545072464085 2032.7775942404483 500.4545072464085L2032.7775942404483 500.4545072464085Q2024.1412306040847 500.4545072464085 2017.1109275737817 504.75753754943884Q2010.0503215131757 509.09087088277215 2005.8988063616603 516.2726890645904Q2001.7169881798422 523.4848102767116 2001.7169881798422 532.2726890645904L2001.7169881798422 532.2726890645904Q2001.7169881798422 541.0605678524691 2005.8988063616603 548.2423860342873Q2010.0503215131757 555.4545072464085 2017.1109275737817 559.7575375494389Q2024.1412306040847 564.0908708827722 2032.7775942404483 564.0908708827722ZM2133.8382003010543 577.7272345191359L2117.474563937418 577.7272345191359L2117.474563937418 500.4545072464085L2096.8685033313573 500.4545072464085L2096.8685033313573 486.8181436100449L2117.9291093919637 486.8181436100449L2117.9291093919637 456.5151133070146L2133.3836548465088 456.5151133070146L2133.3836548465088 486.8181436100449L2155.9594124222667 486.8181436100449L2155.9594124222667 500.4545072464085L2133.8382003010543 500.4545072464085L2133.8382003010543 577.7272345191359ZM2198.5351699980242 579.5454163373176L2198.5351699980242 579.5454163373176Q2191.565473028327 579.5454163373176 2183.6260790889332 576.8787496706509Q2175.6563821192362 574.2423860342874 2169.8988063616603 568.0302648221661L2169.8988063616603 568.0302648221661L2174.444260907115 550.1514769433782Q2178.6866851495392 557.2726890645904 2185.3533518162058 561.4242042161054Q2192.0200184828723 565.6060223979237 2199.5957760586302 565.6060223979237L2199.5957760586302 565.6060223979237Q2206.8685033313573 565.6060223979237 2210.504866967721 562.0302648221661Q2214.1412306040847 558.4848102767116 2214.1412306040847 553.3332951251964L2214.1412306040847 553.3332951251964Q2214.1412306040847 547.4242042161054 2210.2927457555998 544.6969314888328Q2206.4139578768118 541.96965876156 2203.3836548465088 540.9090527009539L2203.3836548465088 540.9090527009539L2191.1109275737817 536.2120830039843Q2187.7775942404483 534.8484466403479 2183.0806245434787 532.1817799736812Q2178.3836548465088 529.5454163373176 2174.8988063616603 524.5454163373176Q2171.413957876812 519.5454163373176 2171.413957876812 511.5151133070146L2171.413957876812 511.5151133070146Q2171.413957876812 504.24238603428734 2174.8988063616603 498.1817799736812Q2178.3836548465088 492.1211739130752 2184.7472912101452 488.5454163373176Q2191.1109275737817 484.9999617918631 2199.7472912101452 484.9999617918631L2199.7472912101452 484.9999617918631Q2206.565473028327 484.9999617918631 2213.9897154525693 487.42420421610547Q2221.413957876812 489.8484466403479 2226.565473028327 495.60602239792365L2226.565473028327 495.60602239792365L2222.0200184828727 513.4848102767116Q2219.5957760586302 509.09087088277215 2215.9594124222667 505.8181436100449Q2212.3230487859028 502.57571936762065 2208.0806245434787 500.75753754943884Q2203.8382003010543 498.939355731257 2199.2927457555998 498.939355731257L2199.2927457555998 498.939355731257Q2193.0806245434787 498.939355731257 2189.504866967721 502.42420421610547Q2185.9594124222663 505.90905270095396 2185.9594124222663 510.4545072464085L2185.9594124222663 510.4545072464085Q2185.9594124222663 514.0908708827722 2188.3836548465088 516.96965876156Q2190.8078972707513 519.8484466403479 2195.6563821192362 521.6666284585297L2195.6563821192362 521.6666284585297L2207.9291093919633 526.3635981554994Q2211.2624427252968 527.5757193676206 2216.2018366646907 530.3029920948934Q2221.1109275737817 533.0302648221661 2224.8988063616603 538.1817799736812Q2228.6866851495392 543.3332951251964 2228.6866851495392 552.1211739130752L2228.6866851495392 552.1211739130752Q2228.6866851495392 560.3029920948934 2224.7472912101452 566.4242042161054Q2220.8078972707513 572.5757193676206 2214.0806245434787 576.0605678524691Q2207.3230487859028 579.5454163373176 2198.5351699980242 579.5454163373176Z " fill="#f1ddd3" transform="matrix(0.3926079026266019,0,0,0.3926079026266019,0,100.8407295094058)"/></g></svg>